<svg width="13" height="11" viewBox="0 0 13 11" fill="none" xmlns="http://www.w3.org/2000/svg">
<path d="M0.15625 5.00081C0.15625 5.20481 0.237251 5.3998 0.381255 5.5438C0.525259 5.68782 0.720251 5.76882 0.924251 5.76882H9.34748L6.2252 8.67955C6.0677 8.81605 5.97318 9.01104 5.96193 9.21954C5.95143 9.42726 6.0257 9.63127 6.1682 9.78355C6.3107 9.93577 6.50864 10.0235 6.7172 10.0273C6.92564 10.0303 7.1267 9.94855 7.27364 9.80077L11.8224 5.56333C11.9776 5.41783 12.0661 5.21458 12.0661 5.00158C12.0661 4.78857 11.9776 4.58532 11.8224 4.43983L7.2737 0.200846C6.96314 -0.0886512 6.4772 -0.0721578 6.1877 0.238349C5.89819 0.548099 5.91543 1.03484 6.2252 1.32434L9.34748 4.23275H0.924251C0.720251 4.23275 0.525258 4.31375 0.381258 4.45775C0.237258 4.60176 0.15625 4.79681 0.15625 5.00081Z" fill="#10294F"/>
</svg>
