<svg width="36" height="36" viewBox="0 0 36 36" fill="none" xmlns="http://www.w3.org/2000/svg">
<g opacity="0.4">
<rect x="0.9" y="0.9" width="34.2" height="34.2" rx="17.1" stroke="#474747" stroke-width="1.8"/>
<path d="M25.0156 17.9998C25.0156 17.7666 24.9231 17.5438 24.7585 17.3792C24.5939 17.2146 24.3711 17.122 24.1379 17.122H14.5114L18.0797 13.7955C18.2597 13.6395 18.3677 13.4166 18.3806 13.1784C18.3926 12.941 18.3077 12.7078 18.1448 12.5338C17.982 12.3598 17.7557 12.2595 17.5174 12.2553C17.2792 12.2518 17.0494 12.3452 16.8815 12.5141L11.6829 17.3569C11.5055 17.5232 11.4044 17.7555 11.4044 17.9989C11.4044 18.2423 11.5055 18.4746 11.6829 18.6409L16.8814 23.4854C17.2363 23.8163 17.7917 23.7974 18.1225 23.4426C18.4534 23.0886 18.4337 22.5323 18.0797 22.2015L14.5114 18.8776H24.1379C24.3711 18.8776 24.5939 18.785 24.7585 18.6204C24.923 18.4558 25.0156 18.2329 25.0156 17.9998Z" fill="#474747"/>
</g>
</svg>
