<svg width="20" height="20" viewBox="0 0 20 20" fill="none" xmlns="http://www.w3.org/2000/svg">
<path d="M18.989 2.65862C19.4446 2.203 19.4446 1.46431 18.989 1.0087C18.5334 0.553089 17.7947 0.553089 17.3391 1.0087L9.9974 8.35041L2.65569 1.0087C2.20008 0.553089 1.46138 0.553089 1.00577 1.0087C0.55016 1.46431 0.55016 2.20301 1.00577 2.65862L8.34748 10.0003L1.00577 17.342C0.550159 17.7976 0.550159 18.5363 1.00577 18.9919C1.46138 19.4476 2.20008 19.4476 2.65569 18.9919L9.9974 11.6502L17.3391 18.9919C17.7947 19.4476 18.5334 19.4476 18.989 18.9919C19.4446 18.5363 19.4446 17.7976 18.989 17.342L11.6473 10.0003L18.989 2.65862Z" fill="white"/>
</svg>
