<svg width="33" height="33" viewBox="0 0 33 33" fill="none" xmlns="http://www.w3.org/2000/svg">
<g clip-path="url(#clip0_1_1574)">
<path d="M30.596 0.524902H2.92224C1.59659 0.524902 0.524658 1.57147 0.524658 2.8654V30.6533C0.524658 31.9472 1.59659 33.0001 2.92224 33.0001H30.596C31.9216 33.0001 32.9999 31.9472 32.9999 30.6596V2.8654C32.9999 1.57147 31.9216 0.524902 30.596 0.524902ZM10.1594 28.1986H5.33886V12.6968H10.1594V28.1986ZM7.74913 10.5846C6.20148 10.5846 4.95195 9.33508 4.95195 7.79378C4.95195 6.25247 6.20148 5.00293 7.74913 5.00293C9.29044 5.00293 10.54 6.25247 10.54 7.79378C10.54 9.32874 9.29044 10.5846 7.74913 10.5846ZM28.1984 28.1986H23.3842V20.6634C23.3842 18.8683 23.3525 16.5532 20.8788 16.5532C18.3734 16.5532 17.9928 18.5131 17.9928 20.5365V28.1986H13.1849V12.6968H17.8025V14.8153H17.8659C18.5066 13.5975 20.0796 12.3099 22.4201 12.3099C27.2977 12.3099 28.1984 15.5193 28.1984 19.6929V28.1986Z" fill="black"/>
</g>
<defs>
<clipPath id="clip0_1_1574">
<rect width="32.4752" height="32.4752" fill="white" transform="translate(0.524658 0.524902)"/>
</clipPath>
</defs>
</svg>
