<svg width="9" height="9" viewBox="0 0 9 9" fill="none" xmlns="http://www.w3.org/2000/svg">
<path fill-rule="evenodd" clip-rule="evenodd" d="M0.269402 0.960855C0.34997 0.365778 0.875067 -0.00991821 1.42085 -0.00991821H2.45884C2.9807 -0.00991821 3.444 0.324015 3.60903 0.819091L4.03315 2.09144C4.21544 2.63831 3.89358 3.22463 3.33434 3.36444C3.19759 3.39862 3.15042 3.56892 3.25009 3.66858L4.61667 5.03516C4.71633 5.13482 4.88663 5.08766 4.92081 4.95091C5.06062 4.39167 5.64694 4.06981 6.19381 4.2521L7.46616 4.67622C7.96123 4.84124 8.29517 5.30455 8.29517 5.82641V6.8644C8.29517 7.41018 7.91947 7.93528 7.32439 8.01585C7.04694 8.05341 6.76391 8.07279 6.47656 8.07279C3.01699 8.07279 0.212463 5.26825 0.212463 1.80869C0.212463 1.52134 0.231838 1.2383 0.269402 0.960855Z" fill="white"/>
</svg>
